<svg width="174" height="36" viewBox="0 0 174 36" fill="none" xmlns="http://www.w3.org/2000/svg">
<g opacity="0.4">
<path fill-rule="evenodd" clip-rule="evenodd" d="M1.86114 30.8189C0.613038 28.743 0 26.0192 0 22.9155C0 17.2715 1.54911 11.3889 4.495 6.8462C7.10867 2.8174 10.8805 0 15.2066 0C17.712 0 20.2028 0.741519 22.8036 2.86513C24.1745 3.98398 25.5889 5.45148 27.1098 7.37688C28.3456 5.7075 29.6785 4.12873 31.1126 2.87797C33.2344 1.02785 35.5232 0 37.8266 0C41.6939 0 45.3777 2.24108 48.1969 6.44424C51.2823 11.0475 52.78 16.8457 52.78 22.8292C52.78 26.3863 52.0789 29 50.8858 31.0649C49.8052 32.937 47.7631 34.8076 44.3982 35.0341C44.1738 35.0492 43.9436 35.057 43.7075 35.057C41.3581 35.057 39.2767 34.5467 36.975 32.3754C35.2057 30.7088 33.1371 27.7482 31.5458 25.0868L26.8122 17.1797C26.6772 16.9542 26.5429 16.732 26.4093 16.5131C26.2745 16.7517 26.1384 16.9929 26.0009 17.2366L24.338 20.1825C20.9975 26.1055 20.1513 27.4546 18.4811 29.6809C15.5535 33.5794 13.0537 35.057 9.76272 35.057C5.85873 35.057 3.39006 33.3665 1.86114 30.8189ZM6.72139 27.6179C6.14323 26.6818 5.70089 25.1346 5.70089 23.1192C5.70089 18.2333 7.08665 13.1454 9.34975 9.72968C10.7502 7.61456 12.3896 6.14024 14.2862 5.80471C14.5403 5.75978 14.7989 5.73527 15.0622 5.73238C15.0797 5.73218 15.0973 5.73209 15.1149 5.73209C17.8974 5.73209 19.6411 7.47209 20.9975 8.91291C21.6751 9.63291 22.6177 10.8204 23.7134 12.3808L21.4692 15.8289C20.9779 16.5833 20.4162 17.4702 19.8145 18.4204L19.8143 18.4207C18.3768 20.6906 16.7106 23.3214 15.2305 25.3695C12.6095 28.9945 11.2494 29.3634 9.76272 29.3634C8.61006 29.3634 7.47943 28.844 6.72139 27.6179ZM29.6999 10.948C30.5783 12.2513 31.4964 13.7003 32.4635 15.3113L33.8199 17.5725C37.0943 23.0275 38.9573 25.8339 40.0476 27.1572C41.4499 28.8568 42.4318 29.3634 43.7075 29.3634C44.1119 29.3634 44.4784 29.317 44.8102 29.229C47.1326 28.6133 47.7509 25.9646 47.7509 22.9871C47.7509 18.1378 46.6203 12.7563 44.1296 8.91108C42.362 6.18361 40.0714 4.51702 37.5513 4.51702C34.8257 4.51702 32.6323 6.57272 30.1673 10.2381C30.0121 10.4688 29.8563 10.7055 29.6999 10.948Z" fill="#597393"/>
<path d="M70.4571 1.10861H63.8624V34.4403H69.2421V8.89456L79.0746 26.5846H84.122L93.9563 8.89456V34.4403H99.336V1.10861H92.8844L81.6699 21.3939L70.4571 1.10861Z" fill="#597393"/>
<path fill-rule="evenodd" clip-rule="evenodd" d="M116.286 9.01203C109.011 9.01203 104.121 14.5184 104.121 22.0841C104.121 29.2918 108.816 35.0349 116.692 35.0349C121.027 35.0349 124.452 33.607 127.145 31.131L124.287 27.6308C122.308 29.4937 120.222 30.5124 116.883 30.5124C112.698 30.5124 110.103 27.8767 109.455 23.9654H127.716V22.4879C127.716 14.4486 123.443 9.01203 116.286 9.01203ZM109.455 20.0357C110.011 16.4401 112.335 13.5364 116.193 13.5364C120.143 13.5364 122.279 16.3318 122.549 20.0357H109.455Z" fill="#597393"/>
<path d="M129.287 14.0136H134.239V25.7972C134.239 31.9257 137.04 34.9872 142.643 34.9872C144.134 34.9872 145.51 34.8 146.953 34.3925V30.0352C145.795 30.2279 145.011 30.3454 143.644 30.3454C140.648 30.3454 139.429 28.9908 139.429 25.1786V14.0136H146.953V9.60855H139.429V2.32368H134.239V9.60855H129.287V14.0136Z" fill="#597393"/>
<path fill-rule="evenodd" clip-rule="evenodd" d="M168.905 34.4403H174V9.60855H168.905V12.7986C167.09 10.3813 164.402 9.01203 160.978 9.01203C154.049 9.01203 149.429 14.5716 149.429 22.0125C149.429 29.3836 153.94 35.0349 160.691 35.0349C164.889 35.0349 167.481 33.0104 168.905 30.9639V34.4403ZM162.024 13.7273C165.441 13.7273 167.767 15.6655 168.809 18.2975V25.7494C167.813 28.2842 165.313 30.3215 161.811 30.3215C157.356 30.3215 154.739 27.0177 154.739 22.0125C154.739 16.8787 157.582 13.7273 162.024 13.7273Z" fill="#597393"/>
</g>
</svg>
