<svg width="125" height="45" viewBox="0 0 125 45" fill="none" xmlns="http://www.w3.org/2000/svg">
<path opacity="0.4" d="M13.7877 44.0994C10.0653 43.9529 7.01388 42.9436 4.63339 41.069C4.18302 40.711 3.09841 39.6373 2.73076 39.1844C1.7657 37.9813 1.11314 36.8104 0.671967 35.5113C-0.679125 31.5121 0.0194303 26.2645 2.65728 20.5052C4.91829 15.5745 8.40171 10.6843 14.4862 3.91127C15.3778 2.91468 18.0524 0 18.0708 0C18.0708 0 17.9237 0.249447 17.7491 0.553212C16.159 3.17681 14.808 6.26704 14.0727 8.94239C12.887 13.2352 13.034 16.9191 14.4954 19.7757C15.4972 21.7437 17.2251 23.4482 19.1645 24.3906C22.5652 26.0396 27.5375 26.1761 33.6128 24.7898C34.0356 24.6937 54.7616 19.244 79.6878 12.6788C104.605 6.11291 124.991 0.745215 125 0.749626C125.009 0.755325 67.1053 25.2918 37.0504 38.0211C32.2894 40.0364 31.0119 40.5455 28.7784 41.3236C23.0524 43.3131 17.9329 44.2623 13.7877 44.0994Z" fill="#597393"/>
</svg>
