<svg width="150" height="63" viewBox="0 0 150 63" fill="none" xmlns="http://www.w3.org/2000/svg">
<path opacity="0.4" d="M129.636 26.9893C127.1 27.5744 120.404 27.8995 120.404 27.8995L119.58 30.5434C119.58 30.5434 122.896 30.2616 125.323 30.5C125.323 30.5 126.103 30.435 126.19 31.3669C126.233 32.3204 126.125 33.3173 126.125 33.3173C126.125 33.3173 126.06 33.9024 125.258 34.0541C124.326 34.2058 118.042 34.4875 118.042 34.4875L117.023 37.9116C117.023 37.9116 116.655 38.6918 117.5 38.4751C118.28 38.2583 124.868 37.0014 125.735 37.1748C126.645 37.3915 127.685 38.6484 127.382 39.7753C127.035 41.1406 120.447 45.3449 116.46 45.0631C116.46 45.0631 114.358 45.1932 112.602 42.3542C110.912 39.6453 113.187 34.5526 113.187 34.5526C113.187 34.5526 112.169 32.1687 112.927 31.3019C112.927 31.3019 113.361 30.9335 114.661 30.8251L116.286 27.4877C116.286 27.4877 114.444 27.5961 113.361 26.2525C112.364 24.9522 112.277 24.3887 113.057 24.042C113.881 23.6086 121.509 22.2433 126.754 22.4166C126.754 22.4166 128.596 22.1999 130.221 25.3856C130.221 25.3856 130.958 26.6859 129.658 26.9893H129.636ZM109.872 39.8187C109.222 41.4007 107.423 43.0694 105.256 42.0508C103.045 41.0106 99.5561 33.9024 99.5561 33.9024C99.5561 33.9024 98.2558 31.2585 97.9958 31.3452C97.9958 31.3452 97.7141 30.8251 97.5624 33.729C97.3457 36.6113 97.6057 42.2242 96.4138 43.1127C95.3302 43.9796 94.0299 43.6112 93.2931 42.5926C92.6863 41.5741 92.4263 39.1252 92.773 34.856C93.1631 30.5867 94.1383 26.0357 95.3736 24.6271C96.6738 23.1968 97.7141 24.237 98.1041 24.6271C98.1041 24.6271 99.7728 26.1441 102.59 30.6301L103.067 31.4536C103.067 31.4536 105.624 35.7228 105.884 35.7011C105.884 35.7011 106.101 35.9178 106.274 35.7445C106.534 35.6795 106.448 34.2925 106.448 34.2925C106.448 34.2925 105.971 29.6765 103.587 21.8749C103.587 21.8749 103.24 20.878 103.479 19.9244C103.695 19.0576 104.627 19.491 104.627 19.491C104.627 19.491 108.225 21.2247 109.98 27.076C111.714 32.9272 110.543 38.2367 109.893 39.8187H109.872ZM92.2312 24.8005C91.8845 25.4073 91.7328 26.2525 90.2375 26.4908C90.2375 26.4908 75.7177 27.5094 75.0026 28.5279C75.0026 28.5279 74.5258 29.1347 75.306 29.2864C76.1295 29.4598 79.4235 29.8932 80.9838 29.9799C82.6742 29.9799 88.3521 30.0233 90.4325 32.5805C90.4325 32.5805 91.6244 33.7941 91.5811 36.5463C91.5378 39.3636 91.0393 40.3605 89.9341 41.379C88.7855 42.3325 78.9467 46.7535 72.5971 39.9921C72.5971 39.9921 69.6931 36.7414 73.6156 34.2708C73.6156 34.2708 76.4329 32.5371 83.6494 34.5526C83.6494 34.5526 85.8165 35.3327 85.7299 36.1346C85.5998 37.0014 83.9311 37.8683 81.504 37.8249C79.1635 37.7599 77.4297 36.633 77.7765 36.828C78.1016 36.9364 75.241 35.4411 74.3524 36.4596C73.4856 37.4132 73.7023 37.9766 74.5691 38.5617C76.7363 39.8187 85.2531 39.3636 87.7886 36.5246C87.7886 36.5246 88.8072 35.3761 87.2685 34.4442C85.7515 33.5774 81.3306 33.0356 79.6185 32.9706C77.9932 32.8839 71.9036 32.9706 70.9934 31.3885C70.9934 31.3885 70.1265 30.2616 71.0801 27.1843C72.0769 23.9336 79.1635 22.6767 82.2408 22.4166C82.2408 22.4166 90.6926 22.0699 92.2746 23.8036C92.2746 23.8036 92.4913 24.1937 92.2312 24.7788V24.8005ZM68.2628 43.8495C67.2442 44.608 65.0771 44.283 64.4487 43.4161C63.8419 42.6576 63.6251 39.667 63.7335 34.9643C63.8852 30.1533 63.9502 24.2587 65.0338 23.3052C66.1173 22.3733 66.7675 23.1968 67.2009 23.8253C67.6343 24.4754 68.1978 25.1906 68.2845 26.6859C68.4145 28.2029 68.7829 36.0045 68.7829 36.0045C68.7829 36.0045 69.2597 43.1127 68.2845 43.8495H68.2628ZM70.4299 18.4941C67.4393 19.5127 65.4022 19.1876 63.6685 18.4291C62.91 19.7944 62.4549 20.2062 61.8914 20.2929C61.0246 20.3795 60.2661 18.9926 60.1577 18.5592C59.9844 18.2341 59.5726 17.649 60.0711 16.327C58.3807 14.81 58.2507 12.7729 58.5541 11.4076C58.9442 9.80396 61.8048 3.77935 70.4733 3.0642C70.4733 3.0642 74.7208 2.7608 75.4577 5.01461H75.5877C75.5877 5.01461 79.7052 5.01461 79.6185 8.69873C79.6185 12.3828 75.0676 16.9772 70.4299 18.5592V18.4941ZM74.2874 8.00525C71.5568 8.43867 67.3526 12.0794 65.3372 15.0918C68.4362 15.6552 73.854 15.4385 76.2812 10.5408C76.2812 10.5408 77.4297 7.46347 74.2874 8.00525ZM62.3032 10.3891C61.4363 11.7977 61.393 12.6429 61.8048 13.2064C62.8233 11.6894 64.622 9.30552 67.3309 7.44179C65.2505 7.65851 63.4951 8.52536 62.3032 10.3891ZM136.137 43.6978C134.143 48.5955 132.453 53.5583 131.478 60.9915C131.478 60.9915 131.261 62.4435 130.069 61.9667C128.877 61.5333 126.927 59.5829 126.494 56.8306C126.06 53.2332 127.664 47.1652 130.936 40.1871C129.983 38.6701 129.311 36.4163 129.853 33.2523C129.853 33.2523 130.719 27.401 136.571 22.1132C136.571 22.1132 137.264 21.5281 137.654 21.7232C138.131 21.9399 137.936 23.8036 137.546 24.7571C137.199 25.6673 134.599 30.175 134.599 30.175C134.599 30.175 132.973 33.2523 133.428 35.6578C136.506 30.9335 143.505 21.3548 147.84 24.3887C150.592 26.3391 150.592 32.6238 148.533 36.2646C146.908 39.1469 142.314 45.1065 136.181 43.7195L136.137 43.6978ZM145.196 28.983C143.592 30.7167 140.732 34.0108 138.478 38.4751C140.862 38.215 143.18 36.8931 143.896 36.2212C145.044 35.2027 147.688 32.4504 147.276 28.8097C147.276 28.8097 147.016 26.9026 145.196 28.983ZM48.1085 46.255C40.4369 48.5955 33.1987 47.512 29.2545 46.4718C29.1461 48.0754 28.9728 48.7472 28.7127 49.0073C28.4093 49.354 25.8955 50.7843 24.5085 48.7472C23.9017 47.772 23.5983 46.0167 23.4249 44.413C14.5397 40.3821 10.4222 34.4442 10.2921 34.2275C10.0754 34.0108 8.05999 31.9087 10.0754 29.3081C11.9608 26.9676 18.2022 24.6054 23.7933 23.6736C24.0101 18.9059 24.5302 15.2218 25.202 13.5964C26.0038 11.646 27.0224 13.3797 27.9326 14.68C28.6694 15.6552 29.1245 19.8378 29.1678 23.1751C32.8086 23.0018 35.0191 23.2618 39.0716 24.042C44.4027 24.9522 47.9568 27.6828 47.6751 30.7601C47.415 33.7941 44.6411 35.051 43.5575 35.1377C42.474 35.2244 40.7403 34.4225 40.7403 34.4225C39.5267 33.8591 40.6319 33.339 42.0406 32.7322C43.6009 31.9737 43.2541 31.2152 43.2541 31.2152C42.6907 29.4815 35.7776 28.3329 28.9078 28.3329C28.9078 32.1254 29.0595 38.41 29.1678 42.0725C33.9788 42.9827 37.5763 42.7876 37.5763 42.7876C37.5763 42.7876 55.13 42.2892 55.6284 31.0852C56.1702 19.8594 38.0747 9.11048 24.7469 5.72976C11.4407 2.24069 3.89911 4.71121 3.24897 5.03628C2.53382 5.38302 3.18396 5.51305 3.18396 5.51305C3.18396 5.51305 3.89911 5.62141 5.19939 6.05483C6.49966 6.48826 5.45944 7.1384 5.45944 7.1384C3.18396 7.91856 0.648419 7.46347 0.149979 6.42324C-0.34846 5.4047 0.475049 4.47283 1.45026 3.10754C2.36045 1.69891 3.40067 1.74225 3.40067 1.74225C19.8708 -4.00064 39.9818 6.29322 39.9818 6.29322C58.7925 15.7852 61.9998 26.9459 61.6531 31.2802C61.3497 35.5494 59.7026 42.766 48.1085 46.2767V46.255ZM11.9175 30.7601C10.0538 31.6269 11.354 33.0139 11.354 33.0139C14.8648 36.763 19.1557 39.1252 23.2732 40.5988C23.75 34.0975 23.7067 31.7786 23.7067 28.5063C17.3353 28.9397 13.6512 29.9799 11.9175 30.7601Z" fill="#597393"/>
</svg>
