<svg width="45" height="56" viewBox="0 0 45 56" fill="none" xmlns="http://www.w3.org/2000/svg">
<path opacity="0.4" d="M43.5628 18.8435C43.2422 19.0923 37.582 22.2817 37.582 29.3735C37.582 37.5765 44.7844 40.4784 45 40.5503C44.9668 40.7272 43.8558 44.5246 41.2026 48.3939C38.8368 51.7989 36.3659 55.1984 32.6072 55.1984C28.8484 55.1984 27.8811 53.015 23.5419 53.015C19.3134 53.015 17.8099 55.2702 14.3717 55.2702C10.9335 55.2702 8.53458 52.1195 5.77632 48.2502C2.58138 43.7066 0 36.6478 0 29.9484C0 19.2028 6.98686 13.5039 13.8632 13.5039C17.5169 13.5039 20.5626 15.9028 22.8565 15.9028C25.0399 15.9028 28.4449 13.3602 32.6016 13.3602C34.177 13.3602 39.8372 13.5039 43.5628 18.8435ZM30.6283 8.81096C32.3474 6.77128 33.5634 3.94116 33.5634 1.11104C33.5634 0.718585 33.5303 0.320599 33.4584 0C30.6615 0.105024 27.3339 1.86279 25.3274 4.1899C23.752 5.98084 22.2817 8.81096 22.2817 11.6798C22.2817 12.1109 22.3535 12.5421 22.3867 12.6803C22.5636 12.7134 22.851 12.7521 23.1384 12.7521C25.648 12.7521 28.8042 11.0717 30.6283 8.81096Z" fill="#597393"/>
</svg>
