<svg width="156" height="52" viewBox="0 0 156 52" fill="none" xmlns="http://www.w3.org/2000/svg">
<g opacity="0.4">
<path d="M20.2087 18.2417V23.6858L33.2203 23.68C32.8211 26.6827 31.8086 28.8812 30.2697 30.4201C28.3721 32.3178 25.4099 34.4063 20.2087 34.4063C12.19 34.4063 5.91856 27.9439 5.91856 19.9252C5.91856 11.9065 12.19 5.44415 20.2087 5.44415C24.5363 5.44415 27.6952 7.14508 30.0267 9.332L33.8683 5.49043C30.6168 2.38362 26.2893 0 20.2145 0C9.23364 0 0 8.94437 0 19.9252C0 30.9061 9.23364 39.8505 20.2145 39.8505C26.1389 39.8505 30.611 37.9065 34.1113 34.2617C37.7098 30.6631 38.8264 25.6124 38.8264 21.5278C38.8264 20.3129 38.7339 19.1905 38.5545 18.2417H20.2087Z" fill="#597393"/>
<path d="M129.965 39.0694V1.46375H124.469V39.0694H129.965Z" fill="#597393"/>
<path fill-rule="evenodd" clip-rule="evenodd" d="M53.8862 39.8563C60.9792 39.8563 66.7589 34.4121 66.7589 27.024C66.7589 19.5839 60.9792 14.1918 53.8862 14.1918C46.7931 14.1918 41.0134 19.5839 41.0134 27.024C41.0134 34.4121 46.7931 39.8563 53.8862 39.8563ZM53.8862 19.2484C57.774 19.2484 61.1238 22.4072 61.1238 27.024C61.1238 31.5888 57.774 34.7998 53.8862 34.7998C49.9983 34.7998 46.6485 31.5946 46.6485 27.024C46.6485 22.4072 49.9983 19.2484 53.8862 19.2484Z" fill="#597393"/>
<path fill-rule="evenodd" clip-rule="evenodd" d="M81.6565 39.8563C88.7495 39.8563 94.5292 34.4121 94.5292 27.024C94.5292 19.5839 88.7495 14.1918 81.6565 14.1918C74.5635 14.1918 68.7838 19.5897 68.7838 27.024C68.7838 34.4121 74.5635 39.8563 81.6565 39.8563ZM81.6565 19.2484C85.5444 19.2484 88.8942 22.4072 88.8942 27.024C88.8942 31.5888 85.5444 34.7998 81.6565 34.7998C77.7687 34.7998 74.4189 31.5946 74.4189 27.024C74.4189 22.4072 77.7687 19.2484 81.6565 19.2484Z" fill="#597393"/>
<path fill-rule="evenodd" clip-rule="evenodd" d="M121.142 14.9729V38.0049C121.142 47.4816 115.554 51.352 108.947 51.352C102.727 51.352 98.9841 47.1923 97.5724 43.7904L102.478 41.7481C103.352 43.8367 105.493 46.3013 108.941 46.3013C113.17 46.3013 115.791 43.6921 115.791 38.7802V36.9346H115.594C114.333 38.4909 111.903 39.8505 108.837 39.8505C102.421 39.8505 96.5426 34.2617 96.5426 27.0703C96.5426 19.8269 102.421 14.1918 108.837 14.1918C111.897 14.1918 114.327 15.5514 115.594 17.0614H115.791V14.9729H121.142ZM116.19 27.0703C116.19 22.5519 113.176 19.2484 109.34 19.2484C105.452 19.2484 102.195 22.5519 102.195 27.0703C102.195 31.5425 105.452 34.7998 109.34 34.7998C113.176 34.7998 116.19 31.5425 116.19 27.0703Z" fill="#597393"/>
<path fill-rule="evenodd" clip-rule="evenodd" d="M151.383 31.2475L155.757 34.1633C154.345 36.2519 150.943 39.8505 145.065 39.8505C137.776 39.8505 132.332 34.2154 132.332 27.0183C132.332 19.3872 137.822 14.186 144.435 14.186C151.094 14.186 154.351 19.4855 155.416 22.3494L156 23.8073L138.846 30.9119C140.159 33.4864 142.202 34.7997 145.065 34.7997C147.935 34.7997 149.925 33.3881 151.383 31.2475ZM137.92 26.6306L149.387 21.8692C148.757 20.2666 146.859 19.15 144.626 19.15C141.762 19.15 137.776 21.6783 137.92 26.6306Z" fill="#597393"/>
</g>
</svg>
