<svg width="169" height="36" viewBox="0 0 169 36" fill="none" xmlns="http://www.w3.org/2000/svg">
<path fill-rule="evenodd" clip-rule="evenodd" d="M16.4267 28.8533C15.36 29.5467 14.1333 29.92 12.8 29.92C12.64 29.92 12.48 29.92 12.32 29.92C11.0933 27.9467 10.4 25.6533 10.4 23.2V12.8C10.4 10.3467 11.0933 8.05333 12.2667 6.08C12.4267 6.08 12.5867 6.08 12.8 6.08C14.1333 6.08 15.4133 6.50667 16.4267 7.14667C15.1467 8.69333 14.4 10.6667 14.4 12.8V23.2C14.4 25.3333 15.1467 27.3067 16.4267 28.8533ZM36 23.2C36 30.2933 30.2933 36 23.2 36C22.5067 36 21.28 36 20.2133 36C22.0267 34.9333 23.5733 33.5467 24.8 31.84C28.1067 31.2533 30.7733 28.8 31.68 25.6H25.3867C24.2667 31.52 19.04 36 12.8 36C5.70667 36 0 30.2933 0 23.2V12.8C0 5.70667 5.70667 0 12.8 0C19.04 0 24.2667 4.48 25.3867 10.4H31.68C30.7733 7.2 28.1067 4.74667 24.8 4.16C23.5733 2.45333 22.0267 1.06667 20.2133 0C21.2267 0 22.4 0 23.2 0C30.2933 0 36 5.70667 36 12.8V14.4H21.6V12.8C21.6 7.94667 17.6533 4 12.8 4C7.94667 4 4 7.94667 4 12.8V23.2C4 28.0533 7.94667 32 12.8 32C17.6533 32 21.6 28.0533 21.6 23.2V21.6H36V23.2Z" fill="#A6876A"/>
<path d="M50.5333 11.2267C49.2533 10.5333 47.8667 10.16 46.32 10.16C44.8267 10.16 43.3867 10.5333 42.1067 11.2267C40.8267 11.92 39.8133 12.88 39.12 14.16C38.3733 15.3867 38 16.8267 38 18.3733C38 19.92 38.3733 21.3067 39.12 22.5333C39.8667 23.76 40.88 24.7733 42.16 25.4667C43.44 26.16 44.8267 26.5333 46.32 26.5333C47.8133 26.5333 49.2533 26.16 50.48 25.4667C51.76 24.7733 52.7733 23.76 53.4667 22.5333C54.2133 21.3067 54.5867 19.8667 54.5867 18.32C54.5867 16.7733 54.2133 15.3867 53.4667 14.16C52.8267 12.9333 51.8133 11.92 50.5333 11.2267ZM50.16 20.8267C49.7867 21.5734 49.2533 22.1067 48.6133 22.5333C47.9733 22.96 47.2267 23.12 46.3733 23.12C45.5733 23.12 44.7733 22.9067 44.1333 22.5333C43.44 22.1067 42.96 21.5734 42.5867 20.8267C42.2133 20.1334 42.0533 19.28 42.0533 18.3733C42.0533 17.4667 42.2667 16.72 42.64 15.9733C43.0133 15.28 43.5467 14.6933 44.1867 14.32C44.8267 13.8934 45.5733 13.68 46.4267 13.68C47.2267 13.68 47.9733 13.8934 48.6667 14.32C49.3067 14.7467 49.84 15.28 50.2133 15.9733C50.5867 16.6667 50.8 17.4667 50.8 18.3733C50.6933 19.28 50.5333 20.08 50.16 20.8267ZM76.9333 10.96C76.0267 10.48 75.0667 10.2134 73.9467 10.2134C72.6667 10.2134 71.5467 10.5333 70.5867 11.1733C70 11.6 69.4667 12.1333 69.0933 12.7733C68.7733 12.1867 68.2933 11.6533 67.6533 11.2267C66.6933 10.5333 65.5733 10.2134 64.2933 10.2134C63.0667 10.2134 62 10.48 61.1467 11.0667C60.6133 11.44 60.1867 11.92 59.92 12.5067V10.5867H56.2933V26.2133H60.08V17.04C60.08 16.0267 60.3467 15.2267 60.88 14.5867C61.4133 14 62.16 13.68 63.12 13.68C63.7067 13.68 64.24 13.84 64.6667 14.1067C65.0933 14.3733 65.4667 14.7467 65.7333 15.28C66 15.8133 66.1067 16.4 66.1067 17.04V26.2133H69.8933V17.04C69.8933 16.0267 70.16 15.2267 70.6933 14.5867C71.2267 14 71.9733 13.68 72.88 13.68C73.52 13.68 74.0533 13.84 74.48 14.1067C74.9067 14.3733 75.28 14.7467 75.5467 15.28C75.8133 15.8133 75.92 16.4 75.92 17.04V26.2133H79.7067V16.08C79.7067 14.96 79.44 13.9467 78.96 13.04C78.5333 12.1333 77.84 11.44 76.9333 10.96ZM94.3733 11.28C93.1467 10.5333 91.8133 10.16 90.3733 10.16C89.2 10.16 88.1333 10.3734 87.1733 10.8534C86.4267 11.2267 85.84 11.7067 85.36 12.2933V10.48H81.7333V31.92H85.52V24.6667C85.9467 25.1467 86.5333 25.5733 87.1733 25.84C88.1333 26.2667 89.2 26.5333 90.32 26.5333C91.8133 26.5333 93.1467 26.16 94.3733 25.4667C95.5467 24.72 96.5067 23.76 97.2 22.5333C97.8933 21.3067 98.2133 19.92 98.2133 18.3733C98.2133 16.88 97.8933 15.4934 97.2 14.2667C96.5067 12.9867 95.5467 12.0267 94.3733 11.28ZM93.7333 20.8267C93.36 21.5734 92.8267 22.1067 92.1333 22.48C91.44 22.8533 90.6933 23.0667 89.84 23.0667C89.04 23.0667 88.2933 22.8533 87.6 22.48C86.9067 22.1067 86.4267 21.52 86.0533 20.8267C85.68 20.1334 85.4667 19.28 85.4667 18.3733C85.4667 17.4667 85.68 16.6667 86.0533 15.9733C86.4267 15.2267 86.96 14.6933 87.6 14.2667C88.2933 13.84 88.9867 13.68 89.84 13.68C90.6933 13.68 91.44 13.8934 92.1333 14.32C92.8267 14.7467 93.3067 15.28 93.7333 16.0267C94.1067 16.72 94.32 17.52 94.32 18.4267C94.32 19.28 94.16 20.08 93.7333 20.8267ZM110.053 10.9067C109.04 10.4267 107.92 10.2134 106.693 10.2134C105.093 10.2134 103.707 10.5867 102.48 11.3334C101.253 12.08 100.4 13.0934 99.92 14.32L103.013 15.8133C103.333 15.12 103.76 14.5333 104.4 14.1067C105.04 13.68 105.733 13.4667 106.48 13.4667C107.333 13.4667 108.027 13.68 108.56 14.1067C109.093 14.5333 109.36 15.12 109.36 15.76V16.24L104.667 16.9867C102.853 17.2534 101.52 17.84 100.613 18.6934C99.7067 19.5467 99.28 20.6667 99.28 21.9467C99.28 22.8533 99.4933 23.6533 99.92 24.3467C100.347 25.04 100.987 25.52 101.787 25.8934C102.587 26.2667 103.547 26.48 104.667 26.48C105.947 26.48 107.067 26.2133 107.973 25.68C108.56 25.36 109.093 24.9333 109.52 24.4534V26.2133H113.093V15.76C113.093 14.6933 112.827 13.7333 112.293 12.88C111.813 12.0267 111.013 11.3867 110.053 10.9067ZM109.413 19.8133C109.413 20.5067 109.253 21.1467 108.933 21.7333C108.613 22.32 108.133 22.8 107.493 23.12C106.853 23.44 106.16 23.6 105.413 23.6C104.773 23.6 104.24 23.44 103.867 23.12C103.44 22.8 103.28 22.3733 103.28 21.84C103.28 21.3067 103.44 20.88 103.813 20.5067C104.187 20.1333 104.72 19.92 105.467 19.8133L109.413 19.12V19.8133ZM126.533 10.96C125.627 10.48 124.613 10.2134 123.44 10.2134C122.32 10.2134 121.307 10.48 120.507 10.96C119.867 11.3333 119.387 11.8667 119.013 12.4534V10.5334H115.387V26.2133H119.173V17.04C119.173 16.0267 119.44 15.2267 120.027 14.5867C120.613 14 121.36 13.68 122.32 13.68C122.907 13.68 123.44 13.84 123.92 14.1067C124.4 14.3733 124.773 14.7467 125.04 15.28C125.307 15.8133 125.467 16.4 125.467 17.04V26.2133H129.253V16.08C129.253 14.96 128.987 13.9467 128.507 13.04C128.133 12.1333 127.44 11.44 126.533 10.96ZM131.387 26.2133H135.173V10.5334H131.387V26.2133ZM133.307 4.08002C132.613 4.08002 132.08 4.29335 131.707 4.66668C131.333 5.04002 131.12 5.57335 131.12 6.26668C131.12 6.96002 131.333 7.49335 131.707 7.86668C132.08 8.24002 132.613 8.45335 133.307 8.45335C134 8.45335 134.533 8.24002 134.96 7.86668C135.333 7.49335 135.547 6.90668 135.547 6.21335C135.547 5.52002 135.333 4.98668 134.96 4.61335C134.533 4.24002 134 4.08002 133.307 4.08002ZM149.36 11.2267C148.08 10.5333 146.693 10.16 145.147 10.16C143.653 10.16 142.213 10.5333 140.933 11.2267C139.653 11.92 138.64 12.88 137.947 14.16C137.2 15.3867 136.827 16.8267 136.827 18.3733C136.827 19.92 137.2 21.3067 137.947 22.5333C138.693 23.76 139.707 24.7733 140.987 25.4667C142.267 26.16 143.653 26.5333 145.147 26.5333C146.64 26.5333 148.08 26.16 149.307 25.4667C150.587 24.7733 151.6 23.76 152.293 22.5333C153.04 21.3067 153.413 19.8667 153.413 18.32C153.413 16.7733 153.04 15.3867 152.293 14.16C151.653 12.9333 150.64 11.92 149.36 11.2267ZM148.933 20.8267C148.56 21.5734 148.027 22.1067 147.387 22.5333C146.747 22.96 146 23.12 145.147 23.12C144.347 23.12 143.547 22.9067 142.907 22.5333C142.213 22.1067 141.733 21.5734 141.36 20.8267C140.987 20.1334 140.827 19.28 140.827 18.3733C140.827 17.4667 141.04 16.72 141.413 15.9733C141.787 15.28 142.32 14.6933 142.96 14.32C143.6 13.8934 144.347 13.68 145.2 13.68C146 13.68 146.747 13.8934 147.44 14.32C148.08 14.7467 148.613 15.28 148.987 15.9733C149.36 16.6667 149.573 17.4667 149.573 18.3733C149.52 19.28 149.307 20.08 148.933 20.8267ZM168.293 13.04C167.76 12.1333 167.067 11.44 166.213 10.96C165.307 10.48 164.293 10.2134 163.12 10.2134C162 10.2134 160.987 10.48 160.187 10.96C159.547 11.3333 159.067 11.8667 158.693 12.4534V10.5334H155.067V26.2133H158.853V17.04C158.853 16.0267 159.12 15.2267 159.707 14.5867C160.293 14 161.04 13.68 162 13.68C162.587 13.68 163.12 13.84 163.6 14.1067C164.08 14.3733 164.453 14.7467 164.72 15.28C164.987 15.8133 165.147 16.4 165.147 17.04V26.2133H168.933V16.08C169.04 14.96 168.827 13.9467 168.293 13.04Z" fill="white"/>
</svg>
