<svg width="90" height="90" viewBox="0 0 90 90" fill="none" xmlns="http://www.w3.org/2000/svg">
<g clip-path="url(#clip0_12_5)">
<path fill-rule="evenodd" clip-rule="evenodd" d="M41.0668 72.1333C38.4 73.8668 35.3333 74.8 32 74.8C31.6 74.8 31.2 74.8 30.8 74.8C27.7332 69.8668 26 64.1333 26 58V32C26 25.8668 27.7332 20.1333 30.6667 15.2C31.0667 15.2 31.4668 15.2 32 15.2C35.3333 15.2 38.5333 16.2667 41.0668 17.8667C37.8668 21.7333 36 26.6668 36 32V58C36 63.3333 37.8668 68.2668 41.0668 72.1333ZM90 58C90 75.7333 75.7333 90 58 90C56.2668 90 53.2 90 50.5333 90C55.0668 87.3333 58.9332 83.8668 62 79.6C70.2667 78.1333 76.9333 72 79.2 64H63.4667C60.6667 78.8 47.6 90 32 90C14.2667 90 0 75.7333 0 58V32C0 14.2667 14.2667 0 32 0C47.6 0 60.6667 11.2 63.4667 26H79.2C76.9333 18 70.2667 11.8667 62 10.4C58.9332 6.13332 55.0668 2.66667 50.5333 0C53.0668 0 56 0 58 0C75.7333 0 90 14.2667 90 32V36H54V32C54 19.8667 44.1333 10 32 10C19.8667 10 10 19.8667 10 32V58C10 70.1333 19.8667 80 32 80C44.1333 80 54 70.1333 54 58V54H90V58Z" fill="#A6876A"/>
</g>
<defs>
<clipPath id="clip0_12_5">
<rect width="90" height="90" fill="white"/>
</clipPath>
</defs>
</svg>
