<svg width="169" height="36" viewBox="0 0 169 36" fill="none" xmlns="http://www.w3.org/2000/svg">
<path fill-rule="evenodd" clip-rule="evenodd" d="M16.4267 28.8533C15.36 29.5467 14.1333 29.92 12.8 29.92C12.64 29.92 12.48 29.92 12.32 29.92C11.0933 27.9467 10.4 25.6533 10.4 23.2V12.8C10.4 10.3467 11.0933 8.05333 12.2667 6.08C12.4267 6.08 12.5867 6.08 12.8 6.08C14.1333 6.08 15.4133 6.50667 16.4267 7.14667C15.1467 8.69333 14.4 10.6667 14.4 12.8V23.2C14.4 25.3333 15.1467 27.3067 16.4267 28.8533ZM36 23.2C36 30.2933 30.2933 36 23.2 36C22.5067 36 21.28 36 20.2133 36C22.0267 34.9333 23.5733 33.5467 24.8 31.84C28.1067 31.2533 30.7733 28.8 31.68 25.6H25.3867C24.2667 31.52 19.04 36 12.8 36C5.70667 36 0 30.2933 0 23.2V12.8C0 5.70667 5.70667 0 12.8 0C19.04 0 24.2667 4.48 25.3867 10.4H31.68C30.7733 7.2 28.1067 4.74667 24.8 4.16C23.5733 2.45333 22.0267 1.06667 20.2133 0C21.2267 0 22.4 0 23.2 0C30.2933 0 36 5.70667 36 12.8V14.4H21.6V12.8C21.6 7.94667 17.6533 4 12.8 4C7.94667 4 4 7.94667 4 12.8V23.2C4 28.0533 7.94667 32 12.8 32C17.6533 32 21.6 28.0533 21.6 23.2V21.6H36V23.2Z" fill="#A6876A"/>
<path d="M50.5333 11.2267C49.2533 10.5334 47.8667 10.1601 46.32 10.1601C44.8267 10.1601 43.3867 10.5334 42.1067 11.2267C40.8267 11.9201 39.8133 12.8801 39.12 14.1601C38.3733 15.3867 38 16.8267 38 18.3734C38 19.9201 38.3733 21.3067 39.12 22.5334C39.8667 23.7601 40.88 24.7734 42.16 25.4667C43.44 26.1601 44.8267 26.5334 46.32 26.5334C47.8133 26.5334 49.2533 26.1601 50.48 25.4667C51.76 24.7734 52.7733 23.7601 53.4667 22.5334C54.2133 21.3067 54.5867 19.8667 54.5867 18.3201C54.5867 16.7734 54.2133 15.3867 53.4667 14.1601C52.8267 12.9334 51.8133 11.9201 50.5333 11.2267ZM50.16 20.8267C49.7867 21.5734 49.2533 22.1067 48.6133 22.5334C47.9733 22.9601 47.2267 23.1201 46.3733 23.1201C45.5733 23.1201 44.7733 22.9067 44.1333 22.5334C43.44 22.1067 42.96 21.5734 42.5867 20.8267C42.2133 20.1334 42.0533 19.2801 42.0533 18.3734C42.0533 17.4667 42.2667 16.7201 42.64 15.9734C43.0133 15.2801 43.5467 14.6934 44.1867 14.3201C44.8267 13.8934 45.5733 13.6801 46.4267 13.6801C47.2267 13.6801 47.9733 13.8934 48.6667 14.3201C49.3067 14.7467 49.84 15.2801 50.2133 15.9734C50.5867 16.6667 50.8 17.4667 50.8 18.3734C50.6933 19.2801 50.5333 20.0801 50.16 20.8267ZM76.9333 10.9601C76.0267 10.4801 75.0667 10.2134 73.9467 10.2134C72.6667 10.2134 71.5467 10.5334 70.5867 11.1734C70 11.6001 69.4667 12.1334 69.0933 12.7734C68.7733 12.1867 68.2933 11.6534 67.6533 11.2267C66.6933 10.5334 65.5733 10.2134 64.2933 10.2134C63.0667 10.2134 62 10.4801 61.1467 11.0667C60.6133 11.4401 60.1867 11.9201 59.92 12.5067V10.5867H56.2933V26.2134H60.08V17.0401C60.08 16.0267 60.3467 15.2267 60.88 14.5867C61.4133 14.0001 62.16 13.6801 63.12 13.6801C63.7067 13.6801 64.24 13.8401 64.6667 14.1067C65.0933 14.3734 65.4667 14.7467 65.7333 15.2801C66 15.8134 66.1067 16.4001 66.1067 17.0401V26.2134H69.8933V17.0401C69.8933 16.0267 70.16 15.2267 70.6933 14.5867C71.2267 14.0001 71.9733 13.6801 72.88 13.6801C73.52 13.6801 74.0533 13.8401 74.48 14.1067C74.9067 14.3734 75.28 14.7467 75.5467 15.2801C75.8133 15.8134 75.92 16.4001 75.92 17.0401V26.2134H79.7067V16.0801C79.7067 14.9601 79.44 13.9467 78.96 13.0401C78.5333 12.1334 77.84 11.4401 76.9333 10.9601ZM94.3733 11.2801C93.1467 10.5334 91.8133 10.1601 90.3733 10.1601C89.2 10.1601 88.1333 10.3734 87.1733 10.8534C86.4267 11.2267 85.84 11.7067 85.36 12.2934V10.4801H81.7333V31.9201H85.52V24.6667C85.9467 25.1467 86.5333 25.5734 87.1733 25.8401C88.1333 26.2667 89.2 26.5334 90.32 26.5334C91.8133 26.5334 93.1467 26.1601 94.3733 25.4667C95.5467 24.7201 96.5067 23.7601 97.2 22.5334C97.8933 21.3067 98.2133 19.9201 98.2133 18.3734C98.2133 16.8801 97.8933 15.4934 97.2 14.2667C96.5067 12.9867 95.5467 12.0267 94.3733 11.2801ZM93.7333 20.8267C93.36 21.5734 92.8267 22.1067 92.1333 22.4801C91.44 22.8534 90.6933 23.0667 89.84 23.0667C89.04 23.0667 88.2933 22.8534 87.6 22.4801C86.9067 22.1067 86.4267 21.5201 86.0533 20.8267C85.68 20.1334 85.4667 19.2801 85.4667 18.3734C85.4667 17.4667 85.68 16.6667 86.0533 15.9734C86.4267 15.2267 86.96 14.6934 87.6 14.2667C88.2933 13.8401 88.9867 13.6801 89.84 13.6801C90.6933 13.6801 91.44 13.8934 92.1333 14.3201C92.8267 14.7467 93.3067 15.2801 93.7333 16.0267C94.1067 16.7201 94.32 17.5201 94.32 18.4267C94.32 19.2801 94.16 20.0801 93.7333 20.8267ZM110.053 10.9067C109.04 10.4267 107.92 10.2134 106.693 10.2134C105.093 10.2134 103.707 10.5867 102.48 11.3334C101.253 12.0801 100.4 13.0934 99.92 14.3201L103.013 15.8134C103.333 15.1201 103.76 14.5334 104.4 14.1067C105.04 13.6801 105.733 13.4667 106.48 13.4667C107.333 13.4667 108.027 13.6801 108.56 14.1067C109.093 14.5334 109.36 15.1201 109.36 15.7601V16.2401L104.667 16.9867C102.853 17.2534 101.52 17.8401 100.613 18.6934C99.7067 19.5467 99.28 20.6667 99.28 21.9467C99.28 22.8534 99.4933 23.6534 99.92 24.3467C100.347 25.0401 100.987 25.5201 101.787 25.8934C102.587 26.2667 103.547 26.4801 104.667 26.4801C105.947 26.4801 107.067 26.2134 107.973 25.6801C108.56 25.3601 109.093 24.9334 109.52 24.4534V26.2134H113.093V15.7601C113.093 14.6934 112.827 13.7334 112.293 12.8801C111.813 12.0267 111.013 11.3867 110.053 10.9067ZM109.413 19.8134C109.413 20.5067 109.253 21.1467 108.933 21.7334C108.613 22.3201 108.133 22.8001 107.493 23.1201C106.853 23.4401 106.16 23.6001 105.413 23.6001C104.773 23.6001 104.24 23.4401 103.867 23.1201C103.44 22.8001 103.28 22.3734 103.28 21.8401C103.28 21.3067 103.44 20.8801 103.813 20.5067C104.187 20.1334 104.72 19.9201 105.467 19.8134L109.413 19.1201V19.8134ZM126.533 10.9601C125.627 10.4801 124.613 10.2134 123.44 10.2134C122.32 10.2134 121.307 10.4801 120.507 10.9601C119.867 11.3334 119.387 11.8667 119.013 12.4534V10.5334H115.387V26.2134H119.173V17.0401C119.173 16.0267 119.44 15.2267 120.027 14.5867C120.613 14.0001 121.36 13.6801 122.32 13.6801C122.907 13.6801 123.44 13.8401 123.92 14.1067C124.4 14.3734 124.773 14.7467 125.04 15.2801C125.307 15.8134 125.467 16.4001 125.467 17.0401V26.2134H129.253V16.0801C129.253 14.9601 128.987 13.9467 128.507 13.0401C128.133 12.1334 127.44 11.4401 126.533 10.9601ZM131.387 26.2134H135.173V10.5334H131.387V26.2134ZM133.307 4.08008C132.613 4.08008 132.08 4.29341 131.707 4.66674C131.333 5.04008 131.12 5.57341 131.12 6.26674C131.12 6.96008 131.333 7.49341 131.707 7.86674C132.08 8.24008 132.613 8.45341 133.307 8.45341C134 8.45341 134.533 8.24008 134.96 7.86674C135.333 7.49341 135.547 6.90674 135.547 6.21341C135.547 5.52008 135.333 4.98674 134.96 4.61341C134.533 4.24008 134 4.08008 133.307 4.08008ZM149.36 11.2267C148.08 10.5334 146.693 10.1601 145.147 10.1601C143.653 10.1601 142.213 10.5334 140.933 11.2267C139.653 11.9201 138.64 12.8801 137.947 14.1601C137.2 15.3867 136.827 16.8267 136.827 18.3734C136.827 19.9201 137.2 21.3067 137.947 22.5334C138.693 23.7601 139.707 24.7734 140.987 25.4667C142.267 26.1601 143.653 26.5334 145.147 26.5334C146.64 26.5334 148.08 26.1601 149.307 25.4667C150.587 24.7734 151.6 23.7601 152.293 22.5334C153.04 21.3067 153.413 19.8667 153.413 18.3201C153.413 16.7734 153.04 15.3867 152.293 14.1601C151.653 12.9334 150.64 11.9201 149.36 11.2267ZM148.933 20.8267C148.56 21.5734 148.027 22.1067 147.387 22.5334C146.747 22.9601 146 23.1201 145.147 23.1201C144.347 23.1201 143.547 22.9067 142.907 22.5334C142.213 22.1067 141.733 21.5734 141.36 20.8267C140.987 20.1334 140.827 19.2801 140.827 18.3734C140.827 17.4667 141.04 16.7201 141.413 15.9734C141.787 15.2801 142.32 14.6934 142.96 14.3201C143.6 13.8934 144.347 13.6801 145.2 13.6801C146 13.6801 146.747 13.8934 147.44 14.3201C148.08 14.7467 148.613 15.2801 148.987 15.9734C149.36 16.6667 149.573 17.4667 149.573 18.3734C149.52 19.2801 149.307 20.0801 148.933 20.8267ZM168.293 13.0401C167.76 12.1334 167.067 11.4401 166.213 10.9601C165.307 10.4801 164.293 10.2134 163.12 10.2134C162 10.2134 160.987 10.4801 160.187 10.9601C159.547 11.3334 159.067 11.8667 158.693 12.4534V10.5334H155.067V26.2134H158.853V17.0401C158.853 16.0267 159.12 15.2267 159.707 14.5867C160.293 14.0001 161.04 13.6801 162 13.6801C162.587 13.6801 163.12 13.8401 163.6 14.1067C164.08 14.3734 164.453 14.7467 164.72 15.2801C164.987 15.8134 165.147 16.4001 165.147 17.0401V26.2134H168.933V16.0801C169.04 14.9601 168.827 13.9467 168.293 13.0401Z" fill="#0E163D"/>
</svg>
