<svg width="200" height="200" viewBox="0 0 200 200" fill="none" xmlns="http://www.w3.org/2000/svg">
<path d="M90.8605 193.262L84.0265 192.137C82.9673 191.962 82.0843 191.623 81.3774 191.119C80.6682 190.63 80.1666 190.01 79.8726 189.262C79.5642 188.51 79.4876 187.663 79.6429 186.72C79.772 185.937 80.0994 185.26 80.6254 184.691C81.1344 184.134 81.8431 183.722 82.7516 183.454L82.5258 184.825C81.4657 184.204 80.7572 183.483 80.4003 182.664C80.0288 181.843 79.9256 180.932 80.0904 179.931C80.3461 178.378 81.062 177.244 82.2379 176.529C83.397 175.826 84.8833 175.623 86.697 175.922L93.531 177.048L90.8605 193.262ZM85.9622 178.484C85.2077 178.359 84.5636 178.469 84.03 178.814C83.494 179.173 83.1675 179.707 83.0504 180.418C82.9333 181.129 83.0711 181.741 83.4637 182.252C83.8418 182.762 84.4153 183.08 85.1843 183.206L89.3631 183.895L90.1409 179.172L85.9622 178.484ZM84.9101 185.822C84.3007 185.721 83.786 185.815 83.3659 186.104C82.9434 186.407 82.6856 186.841 82.5924 187.407C82.4992 187.973 82.6065 188.453 82.9142 188.846C83.222 189.239 83.6806 189.486 84.29 189.587L88.3164 190.25L88.9365 186.485L84.9101 185.822Z" fill="#A6876A"/>
<path d="M71.0074 171.14C72.1644 171.613 73.0986 172.281 73.8102 173.144C74.5217 174.007 74.9608 174.973 75.1274 176.042C75.294 177.111 75.1546 178.19 74.7093 179.279L70.7103 189.058L67.9336 187.923L71.8743 178.286C72.1303 177.66 72.2252 177.039 72.1589 176.424C72.079 175.804 71.8525 175.251 71.4794 174.764C71.1007 174.292 70.5983 173.928 69.9722 173.672C69.3461 173.415 68.7324 173.323 68.1311 173.395C67.5242 173.481 66.9817 173.72 66.5035 174.112C66.0117 174.499 65.6378 175.005 65.3818 175.631L61.4412 185.268L58.6645 184.132L62.6636 174.353C63.1089 173.264 63.7655 172.396 64.6333 171.75C65.5012 171.104 66.4913 170.723 67.6036 170.606C68.7159 170.489 69.8505 170.667 71.0074 171.14Z" fill="#A6876A"/>
<path d="M56.0892 163.032C57.1518 163.771 57.931 164.608 58.4268 165.544C58.9226 166.479 59.184 167.404 59.2112 168.318C59.2178 169.236 59.0507 170.069 58.7098 170.817L55.9635 169.822C56.1868 169.243 56.2813 168.682 56.247 168.138C56.1922 167.599 56.0207 167.086 55.7324 166.599C55.4236 166.115 54.9975 165.685 54.4541 165.307C54.0436 165.022 53.631 164.843 53.2163 164.769C52.7896 164.688 52.4018 164.705 52.0528 164.82C51.6954 164.948 51.4202 165.15 51.2272 165.428C50.9502 165.827 50.8559 166.271 50.9443 166.763C51.0205 167.246 51.2624 167.709 51.6699 168.154L53.4214 169.962C54.3534 170.914 54.8755 171.967 54.9877 173.119C55.0999 174.272 54.7952 175.367 54.0734 176.406C53.5698 177.13 52.9029 177.651 52.0727 177.97C51.2221 178.292 50.3309 178.389 49.3993 178.261C48.4676 178.132 47.6033 177.791 46.8064 177.237C45.8042 176.541 45.0705 175.78 44.6051 174.955C44.1398 174.13 43.8944 173.324 43.8689 172.536C43.8314 171.74 43.9392 171.018 44.1925 170.37L46.9962 171.245C46.8631 171.797 46.831 172.294 46.9 172.736C46.9605 173.19 47.1178 173.594 47.372 173.95C47.6141 174.298 47.9585 174.627 48.4053 174.937C48.7796 175.197 49.1722 175.354 49.5832 175.407C49.9821 175.451 50.3542 175.405 50.6995 175.269C51.0243 175.137 51.2749 174.944 51.4511 174.69C51.7281 174.292 51.8345 173.855 51.7702 173.381C51.706 172.907 51.472 172.457 51.0683 172.033L49.438 170.282C48.4309 169.206 47.861 168.094 47.7283 166.945C47.5752 165.8 47.8385 164.738 48.5183 163.76C49.0051 163.06 49.6599 162.53 50.4828 162.171C51.2972 161.824 52.1967 161.715 53.1814 161.844C54.166 161.973 55.1353 162.369 56.0892 163.032Z" fill="#A6876A"/>
<path d="M36.3366 168.51L34.1765 166.429L45.5791 154.596L47.7392 156.677L36.3366 168.51Z" fill="#A6876A"/>
<path d="M28.6376 160.78L27.2544 158.895L31.7201 144.401L32.6335 145.235L22.6217 152.582L20.8469 150.164L34.0952 140.442L35.4916 142.345L30.8763 156.785L30.0282 156.039L40.1112 148.64L41.886 151.058L28.6376 160.78Z" fill="#A6876A"/>
<path d="M16.7673 142.838L12.3199 132.866L14.7373 131.788L17.9628 139.02L21.8104 137.304L18.7646 130.475L21.182 129.396L24.2278 136.225L28.1359 134.482L24.9104 127.25L27.3278 126.172L31.7751 136.144L16.7673 142.838Z" fill="#A6876A"/>
<path d="M25.0905 116.621C25.3695 117.885 25.3736 119.029 25.1027 120.052C24.8318 121.076 24.3961 121.933 23.7954 122.622C23.1773 123.301 22.4892 123.799 21.7312 124.117L20.39 121.522C20.947 121.249 21.3973 120.901 21.7407 120.478C22.0667 120.045 22.289 119.552 22.4078 118.998C22.509 118.434 22.4883 117.829 22.3456 117.182C22.2377 116.694 22.0565 116.282 21.8017 115.947C21.5438 115.598 21.2474 115.347 20.9127 115.195C20.5636 115.046 20.2239 115.008 19.8936 115.081C19.4198 115.186 19.0486 115.448 18.7801 115.869C18.5084 116.275 18.3714 116.78 18.369 117.383L18.4279 119.9C18.466 121.232 18.1352 122.359 17.4354 123.282C16.7356 124.204 15.7682 124.802 14.5334 125.075C13.6718 125.265 12.8282 125.195 12.0024 124.865C11.1591 124.525 10.4389 123.991 9.84169 123.264C9.24452 122.538 8.84129 121.701 8.63199 120.753C8.36879 119.561 8.34625 118.505 8.56437 117.583C8.7825 116.661 9.14954 115.903 9.6655 115.307C10.1783 114.697 10.7475 114.24 11.3731 113.936L12.8388 116.481C12.3663 116.796 12.0053 117.139 11.756 117.511C11.4924 117.885 11.3331 118.289 11.2783 118.723C11.2204 119.142 11.2501 119.618 11.3674 120.149C11.4657 120.594 11.6478 120.976 11.9138 121.293C12.1765 121.597 12.4809 121.816 12.8268 121.95C13.1552 122.073 13.4702 122.102 13.7717 122.035C14.2456 121.93 14.6199 121.682 14.8948 121.29C15.1696 120.898 15.3027 120.409 15.2939 119.824L15.285 117.432C15.2758 115.958 15.6123 114.754 16.2946 113.82C16.9594 112.875 17.8733 112.274 19.0364 112.018C19.8692 111.834 20.7097 111.889 21.5578 112.183C22.3916 112.481 23.1262 113.012 23.7616 113.775C24.397 114.538 24.8399 115.487 25.0905 116.621Z" fill="#A6876A"/>
<path d="M23.3142 100.614C23.3228 101.908 23.0876 103.028 22.6086 103.972C22.1296 104.916 21.5243 105.663 20.7927 106.212C20.0463 106.746 19.2692 107.09 18.4614 107.242L17.6927 104.424C18.2946 104.273 18.8076 104.027 19.2318 103.685C19.6412 103.33 19.9618 102.894 20.1937 102.378C20.4107 101.847 20.5171 101.251 20.5127 100.589C20.5093 100.089 20.4182 99.6483 20.2392 99.2672C20.0601 98.8713 19.8227 98.5641 19.5272 98.3455C19.2169 98.127 18.8927 98.0188 18.5545 98.0211C18.0692 98.0243 17.6513 98.2036 17.3007 98.5588C16.9501 98.8994 16.7105 99.3642 16.5821 99.9533L16.1133 102.427C15.872 103.737 15.3127 104.77 14.4354 105.526C13.5581 106.282 12.4872 106.664 11.2226 106.672C10.3403 106.678 9.52988 106.434 8.79132 105.939C8.03796 105.429 7.44527 104.757 7.01326 103.921C6.58125 103.086 6.36201 102.183 6.35556 101.212C6.34744 99.9919 6.54641 98.9539 6.95246 98.0983C7.35852 97.2427 7.87614 96.5775 8.50531 96.1027C9.13438 95.6133 9.78659 95.2854 10.4619 95.1191L11.3628 97.9145C10.8348 98.1239 10.4101 98.3841 10.0887 98.695C9.75252 99.0061 9.51229 99.368 9.36798 99.7807C9.22357 100.179 9.15318 100.65 9.1568 101.194C9.15983 101.65 9.25815 102.061 9.45176 102.427C9.64527 102.779 9.89711 103.056 10.2073 103.26C10.5026 103.449 10.8047 103.543 11.1135 103.541C11.5988 103.538 12.0168 103.373 12.3675 103.047C12.7183 102.722 12.9506 102.271 13.0644 101.697L13.5562 99.3558C13.8554 97.9126 14.4362 96.8059 15.2987 96.0355C16.1464 95.2504 17.1658 94.854 18.3569 94.846C19.2098 94.8404 20.0201 95.0703 20.7878 95.5357C21.5409 96.0013 22.1483 96.6737 22.61 97.5529C23.0717 98.4322 23.3065 99.4527 23.3142 100.614Z" fill="#A6876A"/>
<path d="M17.6809 74.1648L16.1737 71.9089L14.5033 74.0027L12.7852 72.6555L14.4349 70.5542L11.7793 69.5956L12.5282 67.5209L15.1838 68.4795L15.2567 65.809L17.4391 65.8698L17.387 68.5478L19.9877 67.7747L20.6051 69.8971L18.0044 70.6702L19.5042 72.9469L17.6809 74.1648Z" fill="#A6876A"/>
<path d="M24.8363 44.4912L29.3257 39.2171C30.0215 38.3997 30.7675 37.8181 31.5639 37.4725C32.349 37.1173 33.1381 37.0069 33.9313 37.1413C34.734 37.2646 35.4993 37.636 36.2271 38.2555C36.8318 38.7702 37.2423 39.3996 37.4585 40.1438C37.6732 40.8672 37.6608 41.687 37.4215 42.6034L36.3634 41.7026C37.4427 41.1152 38.4252 40.8797 39.3109 40.9963C40.206 41.1017 41.0399 41.4832 41.8126 42.1409C43.0107 43.1608 43.6129 44.3589 43.6193 45.7354C43.6239 47.0911 43.0305 48.4688 41.8391 49.8685L37.3497 55.1427L24.8363 44.4912ZM40.0237 47.9177C40.5193 47.3354 40.7573 46.7269 40.7375 46.0922C40.7066 45.4479 40.4168 44.8923 39.8681 44.4252C39.3194 43.9582 38.7246 43.7609 38.0837 43.8332C37.4523 43.8944 36.884 44.2217 36.3788 44.8152L33.6338 48.0402L37.2786 51.1427L40.0237 47.9177ZM34.28 43.2314C34.6803 42.7611 34.8652 42.2716 34.8348 41.7629C34.7931 41.2447 34.5539 40.7997 34.1172 40.428C33.6805 40.0563 33.2142 39.9008 32.7184 39.9615C32.2226 40.0222 31.7745 40.2877 31.3742 40.758L28.7292 43.8654L31.635 46.3388L34.28 43.2314Z" fill="#A6876A"/>
<path d="M54.0287 38.8947C53.0266 39.6418 51.9725 40.0976 50.8662 40.2621C49.7599 40.4266 48.7059 40.3045 47.7041 39.8958C46.7024 39.4871 45.85 38.8112 45.1468 37.8681L38.8315 29.3977L41.2365 27.6046L47.4595 35.9512C47.8638 36.4935 48.3465 36.8949 48.9074 37.1553C49.4802 37.4069 50.0711 37.4983 50.6801 37.4294C51.2803 37.3488 51.8515 37.1063 52.3938 36.702C52.9361 36.2976 53.3316 35.8194 53.5802 35.2672C53.82 34.7032 53.8952 34.1152 53.8058 33.5032C53.7281 32.8824 53.4872 32.3009 53.0828 31.7586L46.8598 23.412L49.2648 21.6189L55.5801 30.0893C56.2833 31.0324 56.6877 32.0423 56.7935 33.1191C56.8992 34.1958 56.7154 35.2408 56.242 36.2541C55.7685 37.2674 55.0308 38.1476 54.0287 38.8947Z" fill="#A6876A"/>
<path d="M68.6702 30.2964C67.4894 30.8257 66.3703 31.0614 65.313 31.0036C64.2557 30.9457 63.3285 30.6926 62.5312 30.2443C61.7414 29.7765 61.114 29.2036 60.649 28.5258L62.9185 26.6865C63.2993 27.1765 63.7313 27.5469 64.2143 27.7977C64.7048 28.0291 65.233 28.1468 65.7989 28.151C66.3722 28.1357 66.9607 27.9928 67.5646 27.7221C68.0208 27.5176 68.3873 27.2566 68.664 26.9392C68.9541 26.6158 69.1396 26.2748 69.2206 25.9162C69.2956 25.5442 69.2639 25.2038 69.1255 24.8952C68.927 24.4524 68.5946 24.1421 68.1282 23.9645C67.6752 23.7808 67.1532 23.7488 66.5624 23.8687L64.1096 24.4364C62.8131 24.7436 61.6422 24.6481 60.5969 24.1497C59.5517 23.6514 58.7704 22.8252 58.2531 21.6712C57.8922 20.8661 57.7895 20.0258 57.945 19.1504C58.1079 18.2555 58.4845 17.4421 59.0749 16.7101C59.6653 15.9781 60.4034 15.4136 61.289 15.0166C62.4027 14.5174 63.4329 14.2812 64.3796 14.308C65.3263 14.3348 66.1437 14.5405 66.8317 14.925C67.5332 15.3035 68.0961 15.7683 68.5204 16.3194L66.325 18.2704C65.9206 17.8715 65.5114 17.5877 65.0973 17.4188C64.6771 17.2365 64.2491 17.1624 63.8133 17.1967C63.3908 17.2249 62.9313 17.3503 62.4348 17.5728C62.0189 17.7593 61.6823 18.015 61.425 18.3398C61.1811 18.6586 61.0284 19.001 60.9669 19.367C60.9128 19.7135 60.9489 20.0277 61.0752 20.3095C61.2737 20.7523 61.5927 21.0686 62.0323 21.2583C62.4718 21.448 62.9773 21.4792 63.5488 21.352L65.8898 20.8585C67.3312 20.5509 68.5782 20.6365 69.6308 21.1154C70.6909 21.5748 71.4645 22.348 71.9517 23.4349C72.3006 24.2132 72.4167 25.0475 72.3001 25.9377C72.1775 26.8145 71.8069 27.6414 71.1882 28.4183C70.5696 29.1951 69.7302 29.8212 68.6702 30.2964Z" fill="#A6876A"/>
<path d="M74.1658 10.5485L77.0633 9.77164L81.319 25.6439L78.4215 26.4208L74.1658 10.5485Z" fill="#A6876A"/>
<path d="M84.7592 7.93983L87.0876 7.72709L97.2015 19.0295L96.0155 19.3815L94.8855 7.0146L97.8729 6.74164L99.3681 23.1063L97.0178 23.3211L87.0276 11.9188L88.1038 11.5768L89.2418 24.0316L86.2544 24.3045L84.7592 7.93983Z" fill="#A6876A"/>
<path d="M106.254 7.02567L117.09 8.35916L116.767 10.9862L108.908 10.0191L108.393 14.2006L115.815 15.1138L115.491 17.7409L108.07 16.8277L107.547 21.0748L115.407 22.0419L115.083 24.669L104.247 23.3355L106.254 7.02567Z" fill="#A6876A"/>
<path d="M124.42 27.679C123.193 27.2663 122.211 26.6799 121.474 25.9198C120.737 25.1597 120.228 24.3445 119.947 23.4741C119.684 22.5945 119.612 21.748 119.731 20.9345L122.646 21.1242C122.593 21.7425 122.659 22.3077 122.843 22.8197C123.046 23.3225 123.354 23.7675 123.767 24.1546C124.198 24.5325 124.728 24.827 125.355 25.0381C125.829 25.1975 126.275 25.2546 126.694 25.2093C127.126 25.1687 127.494 25.0441 127.797 24.8358C128.104 24.6134 128.312 24.342 128.42 24.0214C128.575 23.5615 128.541 23.108 128.319 22.661C128.111 22.2186 127.75 21.8409 127.234 21.5279L125.048 20.2801C123.887 19.6257 123.092 18.7609 122.663 17.6855C122.233 16.61 122.22 15.473 122.623 14.2745C122.905 13.4382 123.4 12.7514 124.108 12.214C124.835 11.6674 125.664 11.3256 126.594 11.1888C127.525 11.0519 128.45 11.1383 129.37 11.4478C130.526 11.8371 131.443 12.3628 132.12 13.0251C132.797 13.6873 133.258 14.3931 133.502 15.1425C133.761 15.8966 133.858 16.6199 133.796 17.3126L130.86 17.2554C130.833 16.688 130.725 16.2018 130.536 15.7967C130.351 15.3777 130.087 15.0328 129.744 14.7621C129.414 14.4961 128.992 14.2763 128.476 14.1028C128.044 13.9574 127.623 13.9167 127.214 13.9806C126.819 14.0493 126.474 14.1971 126.18 14.4241C125.905 14.6419 125.719 14.8971 125.62 15.1898C125.465 15.6497 125.485 16.0985 125.679 16.5362C125.873 16.9738 126.223 17.3399 126.729 17.6343L128.783 18.8608C130.051 19.6131 130.908 20.5223 131.357 21.5885C131.823 22.6454 131.867 23.7383 131.487 24.8672C131.215 25.6756 130.734 26.3671 130.044 26.9417C129.359 27.5024 128.525 27.8581 127.544 28.0088C126.562 28.1594 125.521 28.0495 124.42 27.679Z" fill="#A6876A"/>
<path d="M139.049 34.4136C137.936 33.7535 137.098 32.9748 136.537 32.0773C135.975 31.1799 135.647 30.2762 135.554 29.3662C135.481 28.4511 135.588 27.6083 135.874 26.8376L138.685 27.6328C138.504 28.2264 138.45 28.7928 138.524 29.3321C138.617 29.8663 138.825 30.3658 139.148 30.8307C139.491 31.2905 139.947 31.6892 140.516 32.0267C140.946 32.2817 141.37 32.4309 141.789 32.4741C142.221 32.5249 142.606 32.4801 142.946 32.3396C143.293 32.1865 143.553 31.9645 143.726 31.6736C143.973 31.2562 144.035 30.8058 143.912 30.3222C143.801 29.8461 143.526 29.4011 143.088 28.9873L141.211 27.3097C140.212 26.4271 139.616 25.415 139.421 24.2736C139.226 23.1322 139.451 22.0176 140.096 20.9299C140.546 20.171 141.174 19.6029 141.979 19.2255C142.804 18.843 143.686 18.6821 144.624 18.7429C145.563 18.8037 146.449 19.0816 147.284 19.5767C148.334 20.1993 149.121 20.9052 149.644 21.6944C150.168 22.4836 150.471 23.2701 150.553 24.054C150.648 24.8454 150.592 25.5733 150.386 26.2376L147.527 25.5675C147.62 25.0072 147.616 24.5091 147.515 24.0734C147.422 23.6249 147.236 23.2325 146.957 22.8959C146.69 22.5669 146.323 22.2637 145.855 21.9861C145.463 21.7536 145.06 21.6258 144.646 21.6027C144.245 21.5871 143.878 21.6596 143.543 21.8201C143.229 21.9756 142.993 22.1861 142.835 22.4517C142.587 22.8691 142.513 23.3121 142.611 23.7807C142.709 24.2492 142.975 24.6804 143.408 25.0741L145.161 26.7031C146.243 27.7039 146.891 28.7724 147.106 29.9086C147.341 31.0398 147.155 32.1176 146.548 33.1421C146.113 33.8757 145.498 34.4513 144.703 34.8689C143.916 35.274 143.026 35.4475 142.035 35.3895C141.043 35.3315 140.048 35.0062 139.049 34.4136Z" fill="#A6876A"/>
<path d="M164.614 43.2312L167.324 43.1036L166.392 40.5925L168.432 39.8156L169.382 42.3127L171.573 40.5321L172.964 42.2439L170.773 44.0245L173.023 45.4644L171.845 47.3027L169.578 45.8767L168.899 48.5035L166.762 47.9377L167.441 45.3109L164.717 45.4214L164.614 43.2312Z" fill="#A6876A"/>
<path d="M186.344 64.6669L188.547 71.2334C188.888 72.2512 189.002 73.1903 188.887 74.0508C188.786 74.9066 188.474 75.6396 187.95 76.2497C187.43 76.8738 186.717 77.3379 185.811 77.6419C185.058 77.8944 184.307 77.9214 183.558 77.7228C182.828 77.5336 182.132 77.1001 181.47 76.4224L182.787 75.9805C182.734 77.2082 182.429 78.1714 181.872 78.87C181.32 79.5825 180.563 80.1001 179.601 80.4228C178.109 80.9232 176.772 80.8211 175.59 80.1165C174.426 79.4212 173.552 78.2022 172.967 76.4595L170.765 69.893L186.344 64.6669ZM175.575 75.9105C175.818 76.6354 176.217 77.1532 176.771 77.4637C177.339 77.7695 177.964 77.8078 178.647 77.5787C179.33 77.3495 179.806 76.9418 180.075 76.3553C180.348 75.7828 180.361 75.1271 180.113 74.3882L178.766 70.3731L174.228 71.8953L175.575 75.9105ZM182.552 73.4071C182.749 73.9926 183.073 74.4036 183.524 74.6399C183.99 74.8715 184.494 74.8961 185.038 74.7137C185.582 74.5313 185.955 74.2121 186.159 73.756C186.363 73.2999 186.367 72.7791 186.17 72.1935L184.872 68.3247L181.255 69.5383L182.552 73.4071Z" fill="#A6876A"/>
<path d="M176.081 92.5632C175.958 91.3194 176.111 90.1812 176.541 89.1486C176.971 88.116 177.619 87.276 178.486 86.6286C179.353 85.9813 180.371 85.5996 181.542 85.4837L192.056 84.4426L192.352 87.4278L181.991 88.4537C181.318 88.5204 180.725 88.7268 180.213 89.0731C179.702 89.434 179.319 89.8931 179.064 90.4503C178.823 91.0061 178.736 91.6206 178.803 92.2937C178.869 92.9669 179.075 93.5523 179.42 94.0502C179.78 94.5465 180.244 94.9143 180.815 95.1533C181.387 95.407 182.009 95.5005 182.682 95.4339L193.043 94.4079L193.338 97.3932L182.824 98.4343C181.654 98.5502 180.58 98.3758 179.603 97.911C178.626 97.4462 177.825 96.7497 177.202 95.8214C176.578 94.8932 176.204 93.8071 176.081 92.5632Z" fill="#A6876A"/>
<path d="M175.895 109.541C176.051 108.257 176.426 107.176 177.021 106.3C177.616 105.425 178.311 104.761 179.106 104.309C179.915 103.874 180.729 103.632 181.55 103.583L181.955 106.476C181.338 106.549 180.798 106.728 180.334 107.013C179.883 107.314 179.51 107.705 179.214 108.188C178.932 108.687 178.751 109.265 178.671 109.922C178.611 110.418 178.645 110.867 178.775 111.268C178.902 111.683 179.098 112.018 179.364 112.272C179.644 112.528 179.952 112.677 180.288 112.717C180.769 112.776 181.207 112.651 181.599 112.343C181.99 112.05 182.287 111.619 182.489 111.051L183.268 108.657C183.674 107.388 184.359 106.434 185.325 105.796C186.291 105.157 187.402 104.914 188.658 105.066C189.534 105.172 190.306 105.518 190.976 106.102C191.659 106.703 192.161 107.446 192.484 108.329C192.807 109.213 192.909 110.136 192.793 111.099C192.646 112.311 192.317 113.316 191.806 114.113C191.294 114.91 190.697 115.504 190.012 115.895C189.326 116.301 188.638 116.543 187.947 116.623L187.408 113.735C187.958 113.595 188.412 113.391 188.77 113.123C189.143 112.857 189.428 112.529 189.623 112.137C189.817 111.761 189.946 111.303 190.012 110.763C190.067 110.31 190.021 109.89 189.876 109.502C189.728 109.128 189.514 108.821 189.232 108.58C188.963 108.354 188.675 108.223 188.369 108.186C187.887 108.128 187.451 108.238 187.062 108.517C186.673 108.795 186.385 109.212 186.2 109.768L185.415 112.028C184.935 113.421 184.218 114.445 183.265 115.1C182.325 115.771 181.263 116.035 180.081 115.892C179.234 115.789 178.459 115.459 177.757 114.899C177.069 114.342 176.552 113.598 176.205 112.667C175.859 111.737 175.756 110.695 175.895 109.541Z" fill="#A6876A"/>
<path d="M189.979 124.436L189.15 127.319L173.357 122.777L174.186 119.894L189.979 124.436Z" fill="#A6876A"/>
<path d="M186.749 134.857L185.73 136.961L170.831 139.796L171.141 138.598L182.318 144.009L181.011 146.709L166.22 139.549L167.249 137.425L182.17 134.747L181.908 135.846L170.651 130.396L171.958 127.696L186.749 134.857Z" fill="#A6876A"/>
<path d="M176.445 153.743L169.713 162.339L167.629 160.707L172.511 154.472L169.194 151.875L164.584 157.762L162.5 156.13L167.111 150.243L163.742 147.604L158.859 153.838L156.775 152.206L163.507 143.61L176.445 153.743Z" fill="#A6876A"/>
<path d="M149.381 158.652C150.367 157.814 151.376 157.276 152.407 157.036C153.439 156.797 154.4 156.781 155.29 156.989C156.179 157.218 156.942 157.593 157.578 158.114L155.911 160.513C155.409 160.149 154.891 159.914 154.357 159.808C153.821 159.723 153.281 159.757 152.737 159.911C152.191 160.086 151.665 160.387 151.161 160.815C150.78 161.139 150.501 161.492 150.324 161.874C150.135 162.266 150.052 162.645 150.075 163.012C150.107 163.39 150.232 163.708 150.451 163.966C150.765 164.335 151.171 164.541 151.668 164.581C152.155 164.631 152.665 164.516 153.199 164.236L155.396 163.006C156.555 162.35 157.706 162.115 158.849 162.301C159.992 162.488 160.972 163.064 161.791 164.027C162.362 164.7 162.695 165.478 162.79 166.362C162.884 167.267 162.749 168.153 162.386 169.021C162.024 169.888 161.473 170.637 160.733 171.265C159.803 172.055 158.879 172.569 157.963 172.808C157.046 173.046 156.204 173.077 155.436 172.9C154.657 172.732 153.987 172.443 153.425 172.032L154.989 169.546C155.489 169.816 155.961 169.974 156.406 170.021C156.86 170.079 157.292 170.03 157.701 169.876C158.098 169.731 158.505 169.482 158.919 169.13C159.267 168.835 159.519 168.495 159.675 168.112C159.82 167.738 159.871 167.366 159.828 166.997C159.783 166.65 159.661 166.358 159.461 166.123C159.147 165.753 158.752 165.538 158.277 165.479C157.802 165.419 157.308 165.53 156.795 165.812L154.685 166.939C153.386 167.637 152.165 167.902 151.021 167.736C149.874 167.591 148.916 167.064 148.145 166.157C147.592 165.507 147.248 164.738 147.112 163.851C146.985 162.974 147.11 162.077 147.487 161.158C147.864 160.24 148.496 159.404 149.381 158.652Z" fill="#A6876A"/>
<path d="M136.065 167.711C137.205 167.098 138.304 166.782 139.363 166.764C140.421 166.745 141.365 166.931 142.192 167.321C143.013 167.73 143.681 168.256 144.193 168.899L142.062 170.897C141.647 170.436 141.189 170.097 140.69 169.882C140.184 169.687 139.648 169.607 139.084 169.644C138.513 169.7 137.936 169.885 137.353 170.199C136.913 170.436 136.566 170.722 136.313 171.059C136.047 171.402 135.887 171.756 135.832 172.119C135.784 172.496 135.84 172.833 136 173.131C136.23 173.558 136.584 173.844 137.062 173.987C137.527 174.138 138.05 174.132 138.631 173.97L141.036 173.227C142.307 172.827 143.482 172.838 144.56 173.26C145.639 173.682 146.478 174.449 147.077 175.563C147.495 176.34 147.658 177.171 147.566 178.055C147.468 178.959 147.151 179.798 146.615 180.571C146.078 181.343 145.383 181.959 144.528 182.419C143.453 182.997 142.443 183.307 141.497 183.349C140.551 183.39 139.72 183.244 139.006 182.91C138.28 182.583 137.685 182.16 137.222 181.641L139.271 179.537C139.703 179.905 140.132 180.159 140.557 180.298C140.989 180.449 141.421 180.492 141.853 180.427C142.273 180.368 142.722 180.21 143.201 179.952C143.603 179.736 143.92 179.457 144.153 179.114C144.373 178.779 144.501 178.426 144.536 178.057C144.565 177.707 144.506 177.397 144.36 177.125C144.13 176.697 143.789 176.405 143.337 176.247C142.885 176.09 142.379 176.095 141.818 176.263L139.518 176.924C138.103 177.335 136.853 177.339 135.769 176.937C134.678 176.555 133.851 175.84 133.287 174.791C132.883 174.04 132.707 173.216 132.759 172.32C132.818 171.436 133.128 170.585 133.689 169.766C134.25 168.946 135.042 168.261 136.065 167.711Z" fill="#A6876A"/>
<path d="M118.078 184.606L116.789 186.993L119.421 187.49L119.034 189.639L116.405 189.164L116.801 191.96L114.617 192.268L114.221 189.473L111.827 190.658L110.86 188.701L113.251 187.494L111.351 185.557L112.938 184.018L114.838 185.955L116.148 183.564L118.078 184.606Z" fill="#A6876A"/>
</svg>
